<svg height="496pt" viewBox="0 0 496 496" width="496pt" xmlns="http://www.w3.org/2000/svg"><path d="m488 0h-480c-4.425781 0-8 3.585938-8 8v352c0 4.414062 3.574219 8 8 8h94.558594l-14.445313 86.679688c-.496093 2.96875.71875 5.96875 3.144531 7.753906 2.414063 1.789062 5.621094 2.0625 8.328126.71875l60.414062-30.207032 60.425781 30.207032c1.125.566406 2.359375.847656 3.574219.847656 1.679688 0 3.351562-.527344 4.753906-1.566406 2.421875-1.785156 3.628906-4.785156 3.140625-7.753906l-14.453125-86.679688h166.558594v48h-24c-4.425781 0-8 3.585938-8 8v24h-8c-4.425781 0-8 3.585938-8 8v32c0 4.414062 3.574219 8 8 8h128c4.425781 0 8-3.585938 8-8v-32c0-4.414062-3.574219-8-8-8h-8v-24c0-4.414062-3.574219-8-8-8h-24v-48h56c4.425781 0 8-3.585938 8-8v-352c0-4.414062-3.574219-8-8-8zm-403.449219 277.335938c-2.550781 7.222656-3.976562 14.742187-4.375 22.40625-9.734375-5.582032-16.175781-16.046876-16.175781-27.742188v-176c0-17.648438 14.351562-32 32-32h304c17.648438 0 32 14.351562 32 32v176c0 5.710938-1.550781 11.152344-4.375 16h-51.625c-4.425781 0-8 3.585938-8 8v8h-128c0-44.113281-35.886719-80-80-80-33.839844 0-64.167969 21.433594-75.449219 53.335938zm339.449219 42.664062h-40v-16h48v16zm-324.359375-37.335938c9.023437-25.519531 33.28125-42.664062 60.359375-42.664062 35.289062 0 64 28.710938 64 64s-28.710938 64-64 64-64-28.710938-64-64c0-7.320312 1.222656-14.496094 3.640625-21.335938zm63.933594 134.175782c-2.246094-1.128906-4.902344-1.128906-7.160157 0l-49.941406 24.976562 11.632813-69.800781c12.207031 7.550781 26.527343 11.984375 41.894531 11.984375s29.6875-4.433594 41.894531-11.976562l11.632813 69.800781zm60.273437-64.839844c7.023438-9.320312 12.128906-20.160156 14.542969-32h129.609375v8c0 4.414062 3.574219 8 8 8h8v16zm240.152344 128h-112v-16h112zm-16-32h-80v-16h80zm-48-32v-80h16v80zm80-64h-48v-16h8c4.425781 0 8-3.585938 8-8v-32c0-2.695312-1.414062-4.960938-3.464844-6.414062 2.199219-5.554688 3.464844-11.457032 3.464844-17.585938v-176c0-26.472656-21.527344-48-48-48h-304c-26.472656 0-48 21.527344-48 48v176c0 20.910156 13.734375 39.160156 33.230469 45.503906 2.195312 12.792969 7.417969 24.535156 14.921875 34.496094h-80.152344v-336h464zm0 0"/><path d="m160 352c26.472656 0 48-21.527344 48-48s-21.527344-48-48-48-48 21.527344-48 48 21.527344 48 48 48zm0-80c17.648438 0 32 14.351562 32 32s-14.351562 32-32 32-32-14.351562-32-32 14.351562-32 32-32zm0 0"/><path d="m200 96h96v16h-96zm0 0"/><path d="m160 128h176v16h-176zm0 0"/><path d="m200 160h96v16h-96zm0 0"/></svg>