<svg height="496pt" viewBox="0 0 496 496" width="496pt" xmlns="http://www.w3.org/2000/svg"><path d="m216 120c-52.9375 0-96 43.0625-96 96s43.0625 96 96 96 96-43.0625 96-96-43.0625-96-96-96zm0 16c43.464844 0 78.863281 34.855469 79.902344 78.070312l-50.09375 22.546876c-4.609375-12.023438-16.183594-20.617188-29.808594-20.617188-13.558594 0-25.105469 8.511719-29.761719 20.449219l-50.078125-23.570313c1.65625-42.65625 36.785156-76.878906 79.839844-76.878906zm16 112c0 8.824219-7.175781 16-16 16s-16-7.175781-16-16 7.175781-16 16-16 16 7.175781 16 16zm-16 48c-38.910156 0-71.390625-27.945312-78.511719-64.808594l47.046875 22.144532c2.5625 15.105468 15.648438 26.664062 31.464844 26.664062 15.792969 0 28.855469-11.519531 31.457031-26.585938l46.863281-21.085937c-7.566406 36.304687-39.808593 63.671875-78.320312 63.671875zm0 0"/><path d="m357.65625 290.34375c-3.128906-3.128906-8.183594-3.128906-11.3125 0l-10.34375 10.34375-13.617188-13.617188c13.632813-20.351562 21.617188-44.789062 21.617188-71.070312 0-1.992188-.207031-3.929688-.296875-5.894531l53.703125-24.167969c5.257812 3.78125 11.640625 6.0625 18.59375 6.0625 17.648438 0 32-14.351562 32-32 0-11.113281-5.703125-20.902344-14.328125-26.640625l27.847656-69.605469c.832031.0625 1.632813.246094 2.480469.246094 17.648438 0 32-14.351562 32-32s-14.351562-32-32-32-32 14.351562-32 32c0 11.113281 5.703125 20.902344 14.328125 26.640625l-27.847656 69.605469c-.832031-.0625-1.632813-.246094-2.480469-.246094-5.710938 0-11 1.625-15.648438 4.257812l-45.152343-51.609374c2.984375-4.863282 4.800781-10.527344 4.800781-16.648438 0-17.648438-14.351562-32-32-32-11.609375 0-21.695312 6.28125-27.3125 15.550781l-124.777344-14.679687c.011719-.296875.089844-.574219.089844-.871094 0-17.648438-14.351562-32-32-32s-32 14.351562-32 32c0 8.121094 3.136719 15.457031 8.136719 21.105469l-72.984375 94.878906c-2.25-1.214844-4.625-2.191406-7.152344-2.847656v-82.273438c13.761719-3.574219 24-15.992187 24-30.863281 0-17.648438-14.351562-32-32-32s-32 14.351562-32 32c0 14.871094 10.238281 27.289062 24 30.863281v82.273438c-13.761719 3.574219-24 15.992187-24 30.863281 0 17.648438 14.351562 32 32 32 10.976562 0 20.671875-5.558594 26.441406-14.007812l29.964844 14.097656c-.167969 2.628906-.40625 5.238281-.40625 7.910156 0 70.574219 57.425781 128 128 128 26.28125 0 50.71875-7.984375 71.070312-21.617188l13.617188 13.617188-10.34375 10.34375c-1.503906 1.496094-2.34375 3.527344-2.34375 5.65625s.839844 4.160156 2.34375 5.65625l124.398438 124.398438c8.992187 8.992187 20.945312 13.945312 33.65625 13.945312 26.25 0 47.601562-21.351562 47.601562-47.601562 0-12.710938-4.953125-24.664063-13.945312-33.65625zm106.34375-274.34375c8.824219 0 16 7.175781 16 16s-7.175781 16-16 16-16-7.175781-16-16 7.175781-16 16-16zm-19.3125 384-44.6875 44.6875-68.6875-68.6875 44.6875-44.6875zm-12.6875-240c0 8.824219-7.175781 16-16 16s-16-7.175781-16-16 7.175781-16 16-16 16 7.175781 16 16zm-104-112c8.824219 0 16 7.175781 16 16s-7.175781 16-16 16-16-7.175781-16-16 7.175781-16 16-16zm-184-32c8.824219 0 16 7.175781 16 16s-7.175781 16-16 16-16-7.175781-16-16 7.175781-16 16-16zm-128 16c0-8.824219 7.175781-16 16-16s16 7.175781 16 16-7.175781 16-16 16-16-7.175781-16-16zm16 160c-8.824219 0-16-7.175781-16-16s7.175781-16 16-16 16 7.175781 16 16-7.175781 16-16 16zm31.71875-13.214844c.082031-.929687.28125-1.832031.28125-2.785156 0-6.304688-1.894531-12.152344-5.054688-17.113281l74.480469-96.824219c3.328125 1.175781 6.847657 1.9375 10.574219 1.9375 11.609375 0 21.695312-6.28125 27.3125-15.550781l124.785156 14.679687c-.019531.296875-.097656.574219-.097656.871094 0 17.648438 14.351562 32 32 32 5.710938 0 11-1.625 15.648438-4.257812l45.160156 51.609374c-2.992188 4.863282-4.808594 10.527344-4.808594 16.648438 0 4.6875 1.070312 9.113281 2.886719 13.128906l-45.015625 20.253906c-10.71875-59.816406-63.023438-105.382812-125.871094-105.382812-62.144531 0-114.039062 44.535156-125.566406 103.359375zm40.28125 37.214844c0-61.761719 50.238281-112 112-112s112 50.238281 112 112-50.238281 112-112 112-112-50.238281-112-112zm195.824219 96.511719c4.519531-3.925781 8.761719-8.167969 12.6875-12.6875l12.175781 12.175781-12.6875 12.6875zm17.832031 29.144531 34.34375-34.34375 12.6875 12.6875-44.6875 44.6875-12.6875-12.6875zm130.742188 138.34375c-8.4375 0-16.375-3.289062-22.335938-9.257812l-14.75-14.742188 44.6875-44.6875 14.742188 14.742188c5.96875 5.96875 9.257812 13.90625 9.257812 22.34375 0 17.425781-14.175781 31.601562-31.601562 31.601562zm0 0"/><path d="m440 440h16v16h-16zm0 0"/></svg>