<svg height="496pt" viewBox="0 0 496 496" width="496pt" xmlns="http://www.w3.org/2000/svg"><path d="m408 376v-16c0-22.054688-17.945312-40-40-40h-48c0-17.648438-14.351562-32-32-32-8.824219 0-16-7.175781-16-16v-77.070312l13.503906-8.105469c22.207032-13.320313 38.257813-34.585938 45.726563-58.824219h12.769531v32h16v-36.6875l23.601562-23.601562c10.574219-10.574219 16.398438-24.640626 16.398438-39.597657v-36.113281c0-4.414062-3.585938-8-8-8h-56v-8c0-4.414062-3.585938-8-8-8h-160c-4.414062 0-8 3.585938-8 8v8h-56c-4.414062 0-8 3.585938-8 8v36.121094c0 14.957031 5.824219 29.015625 16.398438 39.597656l23.601562 23.601562v36.679688h16v-32h12.769531c7.46875 24.238281 23.519531 45.503906 45.726563 58.824219l13.503906 8.105469v77.070312c0 8.824219-7.175781 16-16 16-17.648438 0-32 14.351562-32 32h-104v16h16v64h-16v16h24.207031c-5.078125 6.703125-8.207031 14.960938-8.207031 24v16c0 22.054688 17.945312 40 40 40h296v-16h-16v-64h16v-16h-24.207031c5.078125-6.703125 8.207031-14.960938 8.207031-24zm-260.6875-264-23.601562-23.601562c-7.550782-7.550782-11.710938-17.597657-11.710938-28.277344v-28.121094h48v65.648438c0 4.839843.390625 9.625 1.0625 14.351562zm244.6875 248v16c0 13.230469-10.769531 24-24 24h-8v-64h8c13.230469 0 24 10.769531 24 24zm-8-328v28.121094c0 10.679687-4.160156 20.726562-11.710938 28.285156l-23.601562 23.59375h-13.75c.671875-4.726562 1.0625-9.519531 1.0625-14.351562v-65.648438zm-208 65.648438v-81.648438h144v81.648438c0 30.734374-16.367188 59.65625-42.726562 75.464843l-29.273438 17.558594-29.273438-17.566406c-26.359374-15.808594-42.726562-44.730469-42.726562-75.457031zm32 206.351562c17.648438 0 32-14.351562 32-32v-67.472656l3.878906 2.328125c1.273438.769531 2.695313 1.144531 4.121094 1.144531s2.847656-.375 4.121094-1.144531l3.878906-2.328125v67.472656c0 17.648438 14.351562 32 32 32 8.824219 0 16 7.175781 16 16h-112c0-8.824219 7.175781-16 16-16zm-72 32h48v27.054688l-20.425781-10.207032c-2.246094-1.128906-4.902344-1.128906-7.160157 0l-20.414062 10.207032zm-32 0h16v40c0 2.777344 1.441406 5.34375 3.792969 6.808594 2.359375 1.457031 5.3125 1.582031 7.78125.351562l28.425781-14.214844 28.425781 14.207032c1.125.566406 2.351563.847656 3.574219.847656 1.464844 0 2.921875-.398438 4.207031-1.191406 2.351563-1.464844 3.792969-4.03125 3.792969-6.808594v-40h144v64h-240zm0 120v-16c0-13.230469 10.769531-24 24-24h8v64h-8c-13.230469 0-24-10.769531-24-24zm288-8h-80v16h80v16h-240v-32h152v-16h-152v-16h240zm0 0"/><path d="m267.558594 158.65625c1.34375.894531 2.890625 1.34375 4.441406 1.34375 1.296875 0 2.59375-.3125 3.777344-.945312 2.597656-1.390626 4.222656-4.101563 4.222656-7.054688v-56h-.207031c5.078125-6.703125 8.207031-14.960938 8.207031-24 0-22.054688-17.945312-40-40-40s-40 17.945312-40 40c0 9.039062 3.128906 17.296875 8.207031 24h-.207031v56c0 2.953125 1.625 5.664062 4.222656 7.054688 2.59375 1.386718 5.753906 1.234374 8.210938-.398438l19.566406-13.039062zm-19.558594-110.65625c13.230469 0 24 10.769531 24 24s-10.769531 24-24 24-24-10.769531-24-24 10.769531-24 24-24zm-16 89.046875v-28.4375c4.910156 2.160156 10.304688 3.390625 16 3.390625s11.089844-1.230469 16-3.390625v28.4375l-11.558594-7.703125c-2.6875-1.792969-6.183594-1.792969-8.875 0zm0 0"/><path d="m488 168c-13.230469 0-24-10.769531-24-24 0-4.414062-3.585938-8-8-8s-8 3.585938-8 8c0 13.230469-10.769531 24-24 24-4.414062 0-8 3.585938-8 8s3.585938 8 8 8c13.230469 0 24 10.769531 24 24 0 4.414062 3.585938 8 8 8s8-3.585938 8-8c0-13.230469 10.769531-24 24-24 4.414062 0 8-3.585938 8-8s-3.585938-8-8-8zm-32 16.023438c-2.28125-3.03125-4.992188-5.742188-8.023438-8.023438 3.03125-2.28125 5.742188-4.992188 8.023438-8.023438 2.28125 3.03125 4.992188 5.742188 8.023438 8.023438-3.03125 2.28125-5.742188 4.992188-8.023438 8.023438zm0 0"/><path d="m416 232c-13.230469 0-24-10.769531-24-24 0-4.414062-3.585938-8-8-8s-8 3.585938-8 8c0 13.230469-10.769531 24-24 24-4.414062 0-8 3.585938-8 8s3.585938 8 8 8c13.230469 0 24 10.769531 24 24 0 4.414062 3.585938 8 8 8s8-3.585938 8-8c0-13.230469 10.769531-24 24-24 4.414062 0 8-3.585938 8-8s-3.585938-8-8-8zm-32 16.023438c-2.28125-3.03125-4.992188-5.742188-8.023438-8.023438 3.03125-2.28125 5.742188-4.992188 8.023438-8.023438 2.28125 3.03125 4.992188 5.742188 8.023438 8.023438-3.03125 2.28125-5.742188 4.992188-8.023438 8.023438zm0 0"/><path d="m80 232c0 4.414062 3.585938 8 8 8s8-3.585938 8-8c0-13.230469 10.769531-24 24-24 4.414062 0 8-3.585938 8-8s-3.585938-8-8-8c-13.230469 0-24-10.769531-24-24 0-4.414062-3.585938-8-8-8s-8 3.585938-8 8c0 13.230469-10.769531 24-24 24-4.414062 0-8 3.585938-8 8s3.585938 8 8 8c13.230469 0 24 10.769531 24 24zm8-40.023438c2.28125 3.03125 4.992188 5.742188 8.023438 8.023438-3.03125 2.28125-5.742188 4.992188-8.023438 8.023438-2.28125-3.03125-4.992188-5.742188-8.023438-8.023438 3.03125-2.28125 5.742188-4.992188 8.023438-8.023438zm0 0"/><path d="m72 48c4.414062 0 8-3.585938 8-8s-3.585938-8-8-8c-13.230469 0-24-10.769531-24-24 0-4.414062-3.585938-8-8-8s-8 3.585938-8 8c0 13.230469-10.769531 24-24 24-4.414062 0-8 3.585938-8 8s3.585938 8 8 8c13.230469 0 24 10.769531 24 24 0 4.414062 3.585938 8 8 8s8-3.585938 8-8c0-13.230469 10.769531-24 24-24zm-32 .023438c-2.28125-3.03125-4.992188-5.742188-8.023438-8.023438 3.03125-2.28125 5.742188-4.992188 8.023438-8.023438 2.28125 3.03125 4.992188 5.742188 8.023438 8.023438-3.03125 2.28125-5.742188 4.992188-8.023438 8.023438zm0 0"/></svg>