<svg height="496pt" viewBox="0 0 496 496" width="496pt" xmlns="http://www.w3.org/2000/svg"><path d="m488 319.992188h-384c-13.230469 0-24 10.769531-24 24v48c0 2.816406.574219 5.488281 1.472656 8h-57.472656c-13.230469 0-24 10.769531-24 24v48c0 13.230468 10.769531 24 24 24h384c4.425781 0 8-3.578126 8-8v-72h72c4.425781 0 8-3.578126 8-8v-80c0-4.425782-3.574219-8-8-8zm-392 72v-48c0-4.417969 3.585938-8 8-8h24v64h-24c-4.414062 0-8-3.585938-8-8zm-80 80v-48c0-4.417969 3.585938-8 8-8h24v64h-24c-4.414062 0-8-3.585938-8-8zm384-24h-48v16h48v16h-336v-32h272v-16h-272v-16h336zm8-48h-264v-32h272v-16h-272v-16h336v32h-48v16h48v16zm0 0"/><path d="m5.472656 95.574219 74.527344 24.851562v135.566407c0 10.183593 8.207031 19.039062 24.238281 26.398437 1.234375 12.097656 11.355469 21.601563 23.761719 21.601563h16c6.328125 0 12.046875-2.503907 16.335938-6.519532 26.199218 4.222656 56.304687 6.519532 87.664062 6.519532 80.910156 0 168-15.023438 168-48v-135.566407l74.527344-24.839843c3.273437-1.097657 5.472656-4.144532 5.472656-7.59375 0-3.449219-2.199219-6.496094-5.472656-7.585938l-240-80c-1.640625-.542969-3.421875-.542969-5.0625 0l-240 80c-3.265625 1.089844-5.464844 4.136719-5.464844 7.585938 0 3.449218 2.199219 6.496093 5.472656 7.582031zm90.527344 160.417969v-130.238282l32 10.660156v119.578126c-8.246094 0-15.535156 4.191406-19.863281 10.542968-9.3125-4.710937-12.136719-8.695312-12.136719-10.542968zm48 32h-16c-4.414062 0-8-3.585938-8-8 0-4.417969 3.585938-8 8-8h16c4.414062 0 8 3.582031 8 8 0 4.414062-3.585938 8-8 8zm256-32c0 10.855468-53.648438 32-152 32-28.609375 0-56.007812-1.992188-80.238281-5.601563.078125-.796875.238281-1.574219.238281-2.398437 0-13.230469-10.769531-24-24-24v-114.238282l32 10.660156v31.578126h16v-26.238282l16 5.335938v28.902344h16v-23.566407l16 5.335938v34.230469h16v-34.238282l16-5.339844v23.578126h16v-28.902344l16-5.335938v18.238282h16v-23.566407l80-26.664062zm-152-239.566407 214.703125 71.566407-214.703125 71.566406-93.535156-31.175782 66.808594-30.367187c7 3.710937 16.207031 5.976563 26.726562 5.976563 22.808594 0 40-10.320313 40-24 0-13.679688-17.191406-24-40-24s-40 10.320312-40 24c0 2.070312.511719 4.023437 1.257812 5.910156l-76.570312 34.808594c-.152344.074218-.273438.191406-.421875.273437l-98.96875-32.992187zm-24 63.566407c0-1.992188 8.511719-8 24-8s24 6.007812 24 8c0 1.992187-8.511719 8-24 8s-24-6.007813-24-8zm0 0"/></svg>