<svg height="496pt" viewBox="-80 0 496 496" width="496pt" xmlns="http://www.w3.org/2000/svg"><path d="m62.402344 339.199219c-3.015625-4.03125-9.78125-4.03125-12.800782 0l-48 64c-1.820312 2.425781-2.109374 5.664062-.757812 8.375 1.359375 2.714843 4.128906 4.425781 7.160156 4.425781h24v80h16v-88c0-4.425781-3.578125-8-8-8h-16l32-42.664062 32 42.664062h-16c-4.425781 0-8 3.574219-8 8v88h16v-80h24c3.03125 0 5.800782-1.710938 7.160156-4.425781 1.351563-2.710938 1.0625-5.949219-.761718-8.375zm0 0"/><path d="m158.402344 275.199219c-3.015625-4.03125-9.78125-4.03125-12.800782 0l-48 64c-1.820312 2.425781-2.109374 5.664062-.757812 8.375 1.359375 2.714843 4.128906 4.425781 7.160156 4.425781h24v144h16v-152c0-4.425781-3.578125-8-8-8h-16l32-42.664062 32 42.664062h-16c-4.425781 0-8 3.574219-8 8v152h16v-144h24c3.03125 0 5.800782-1.710938 7.160156-4.425781 1.351563-2.710938 1.0625-5.949219-.761718-8.375zm0 0"/><path d="m320.949219 72 14.207031-28.425781c1.238281-2.476563 1.109375-5.421875-.351562-7.78125-1.457032-2.351563-4.023438-3.792969-6.800782-3.792969h-40v-24c0-4.414062-3.578125-8-8-8h-80c-4.425781 0-8 3.585938-8 8v72h-88.207031c5.078125-6.703125 8.207031-14.960938 8.207031-24v-16c0-22.054688-17.945312-40-40-40-22.054687 0-40 17.945312-40 40v16c0 9.039062 3.128906 17.296875 8.207032 24h-.207032c-22.054687 0-39.99999975 17.945312-39.99999975 40v80c0 4.414062 3.57421875 8 7.99999975 8h24v104c0 4.425781 3.574219 8 8 8h32c4.421875 0 8-3.574219 8-8v-120h48v56c0 4.414062 3.574219 8 8 8h32c4.421875 0 8-3.585938 8-8v-72c0-17.648438-14.351562-32-32-32h-32v-16h80v152h.0625c0 1.214844.207032 2.449219.777344 3.574219 1.359375 2.714843 4.128906 4.425781 7.160156 4.425781h24v208h16v-216c0-4.425781-3.578125-8-8-8h-16l32-42.664062 32 42.664062h-16c-4.425781 0-8 3.574219-8 8v216h16v-208h24c3.03125 0 5.800782-1.710938 7.160156-4.425781 1.351563-2.710938 1.0625-5.949219-.761718-8.375l-48-64c-3.015625-4.03125-9.78125-4.03125-12.800782 0l-33.597656 44.800781v-176h16v24c0 4.414062 3.574219 8 8 8h96c2.777344 0 5.34375-1.441406 6.808594-3.792969 1.460938-2.359375 1.589844-5.304687.351562-7.78125zm-272.945313-16v-16c0-13.230469 10.765625-24 24-24 13.230469 0 24 10.769531 24 24v16c0 13.230469-10.769531 24-24 24-13.234375 0-24-10.769531-24-24zm56 56c-4.425781 0-8 3.585938-8 8v32c0 4.414062 3.574219 8 8 8h40c8.824219 0 16 7.175781 16 16v64h-16v-56c0-4.414062-3.578125-8-8-8h-64c-4.425781 0-8 3.585938-8 8v120h-16v-176h-16v64h-16v-72c0-13.230469 10.765625-24 24-24h152v16zm104-96h64v48h-64zm45.574219 64-13.574219 9.054688v-9.054688zm51.265625-4.425781 10.214844 20.425781h-56.632813l26.019531-17.34375-.082031-.121094c2.144531-1.4375 3.640625-3.757812 3.640625-6.535156v-24h27.054688l-10.207032 20.425781c-1.128906 2.246094-1.128906 4.902344-.007812 7.148438zm0 0"/></svg>