<?xml version="1.0" encoding="iso-8859-1"?>
<!-- Generator: Adobe Illustrator 19.0.0, SVG Export Plug-In . SVG Version: 6.00 Build 0)  -->
<svg version="1.1" id="Capa_1" xmlns="http://www.w3.org/2000/svg" xmlns:xlink="http://www.w3.org/1999/xlink" x="0px" y="0px"
	 viewBox="0 0 496 496" style="enable-background:new 0 0 496 496;" xml:space="preserve">
<g>
	<g>
		<path d="M488,96H288V8c0-4.8-3.2-8-8-8H8C3.2,0,0,3.2,0,8v384c0,4.8,3.2,8,8,8h200v88c0,4.8,3.2,8,8,8h272c4.8,0,8-3.2,8-8V104
			C496,99.2,492.8,96,488,96z M16,16h256v16H16V16z M208,104v280H16V48h256v48h-56C211.2,96,208,99.2,208,104z M480,480H224V144h256
			V480z M480,128H224v-16h256V128z"/>
	</g>
</g>
<g>
	<g>
		<rect x="32" y="64" width="16" height="16"/>
	</g>
</g>
<g>
	<g>
		<rect x="64" y="64" width="112" height="16"/>
	</g>
</g>
<g>
	<g>
		<rect x="64" y="96" width="128" height="16"/>
	</g>
</g>
<g>
	<g>
		<rect x="32" y="128" width="16" height="16"/>
	</g>
</g>
<g>
	<g>
		<rect x="64" y="128" width="112" height="16"/>
	</g>
</g>
<g>
	<g>
		<rect x="64" y="160" width="128" height="16"/>
	</g>
</g>
<g>
	<g>
		<rect x="32" y="192" width="16" height="16"/>
	</g>
</g>
<g>
	<g>
		<rect x="64" y="192" width="112" height="16"/>
	</g>
</g>
<g>
	<g>
		<rect x="64" y="224" width="128" height="16"/>
	</g>
</g>
<g>
	<g>
		<rect x="32" y="256" width="16" height="16"/>
	</g>
</g>
<g>
	<g>
		<rect x="64" y="256" width="112" height="16"/>
	</g>
</g>
<g>
	<g>
		<rect x="64" y="288" width="128" height="16"/>
	</g>
</g>
<g>
	<g>
		<rect x="32" y="320" width="16" height="16"/>
	</g>
</g>
<g>
	<g>
		<rect x="64" y="320" width="112" height="16"/>
	</g>
</g>
<g>
	<g>
		<rect x="64" y="352" width="128" height="16"/>
	</g>
</g>
<g>
	<g>
		<path d="M280,160h-32c-4.8,0-8,3.2-8,8v32c0,4.8,3.2,8,8,8h32c4.8,0,8-3.2,8-8v-32C288,163.2,284.8,160,280,160z M272,192h-16v-16
			h16V192z"/>
	</g>
</g>
<g>
	<g>
		<rect x="304" y="192" width="160" height="16"/>
	</g>
</g>
<g>
	<g>
		<path d="M280,224h-32c-4.8,0-8,3.2-8,8v32c0,4.8,3.2,8,8,8h32c4.8,0,8-3.2,8-8v-32C288,227.2,284.8,224,280,224z M272,256h-16v-16
			h16V256z"/>
	</g>
</g>
<g>
	<g>
		<path d="M280,288h-32c-4.8,0-8,3.2-8,8v32c0,4.8,3.2,8,8,8h32c4.8,0,8-3.2,8-8v-32C288,291.2,284.8,288,280,288z M272,320h-16v-16
			h16V320z"/>
	</g>
</g>
<g>
	<g>
		<path d="M280,352h-32c-4.8,0-8,3.2-8,8v32c0,4.8,3.2,8,8,8h32c4.8,0,8-3.2,8-8v-32C288,355.2,284.8,352,280,352z M272,384h-16v-16
			h16V384z"/>
	</g>
</g>
<g>
	<g>
		<path d="M280,416h-32c-4.8,0-8,3.2-8,8v32c0,4.8,3.2,8,8,8h32c4.8,0,8-3.2,8-8v-32C288,419.2,284.8,416,280,416z M272,448h-16v-16
			h16V448z"/>
	</g>
</g>
<g>
	<g>
		<path d="M464,285.6l-16-56c-1.6-4-5.6-6.4-9.6-5.6c-2.4,0.8-4.8,3.2-5.6,5.6l-16,56c0,0.8,0,1.6,0,2.4v152c0,13.6,10.4,24,24,24
			c13.6,0,24-10.4,24-24V288C464,287.2,464,286.4,464,285.6z M440,260.8l5.6,19.2h-10.4L440,260.8z M448,440c0,4.8-3.2,8-8,8
			s-8-3.2-8-8v-8h16V440z M448,416h-16v-88h16V416z M448,312h-16v-16h16V312z"/>
	</g>
</g>
<g>
	<g>
		<rect x="304" y="256" width="96" height="16"/>
	</g>
</g>
<g>
	<g>
		<rect x="304" y="320" width="96" height="16"/>
	</g>
</g>
<g>
	<g>
		<rect x="304" y="384" width="96" height="16"/>
	</g>
</g>
<g>
	<g>
		<rect x="304" y="448" width="96" height="16"/>
	</g>
</g>
<g>
</g>
<g>
</g>
<g>
</g>
<g>
</g>
<g>
</g>
<g>
</g>
<g>
</g>
<g>
</g>
<g>
</g>
<g>
</g>
<g>
</g>
<g>
</g>
<g>
</g>
<g>
</g>
<g>
</g>
</svg>
