<svg height="496pt" viewBox="0 0 496 496" width="496pt" xmlns="http://www.w3.org/2000/svg"><path d="m488 352h-24v-305.472656c9.289062-3.3125 16-12.113282 16-22.527344 0-13.230469-10.769531-24-24-24h-416c-13.230469 0-24 10.769531-24 24 0 10.414062 6.710938 19.214844 16 22.527344v305.472656h-24c-4.414062 0-8 3.574219-8 8v32c0 4.425781 3.585938 8 8 8h232v40c0 4.425781 3.585938 8 8 8 8.824219 0 16 7.175781 16 16s-7.175781 16-16 16-16-7.175781-16-16h-16c0 17.648438 14.351562 32 32 32s32-14.351562 32-32c0-14.878906-10.214844-27.433594-24-30.984375v-33.015625h232c4.414062 0 8-3.574219 8-8v-32c0-4.425781-3.585938-8-8-8zm-448-336h416c4.40625 0 8 3.585938 8 8s-3.59375 8-8 8h-416c-4.40625 0-8-3.585938-8-8s3.59375-8 8-8zm8 32h400v272h-16v-128h-16v128h-16v-80h-16v80h-16v-96h-16v96h-16v-32h-16v32h-16v-64h-16v64h-16v-48h-16v48h-16v16h208v16h-400zm432 336h-464v-16h464zm0 0"/><path d="m248 184h-80v-80c0-4.425781-3.585938-8-8-8-52.9375 0-96 43.0625-96 96s43.0625 96 96 96 96-43.0625 96-96c0-4.425781-3.585938-8-8-8zm-96-11.3125-42.550781-42.550781c11.855469-9.703125 26.488281-16.136719 42.550781-17.738281zm8 99.3125c-44.113281 0-80-35.886719-80-80 0-19.175781 6.839844-36.753906 18.136719-50.550781l56.199219 56.199219c1.449218 1.457031 3.449218 2.351562 5.664062 2.351562h79.601562c-4.027343 40.367188-38.195312 72-79.601562 72zm0 0"/><path d="m192 168h88c4.414062 0 8-3.574219 8-8 0-52.9375-43.0625-96-96-96-4.414062 0-8 3.574219-8 8v88c0 4.425781 3.585938 8 8 8zm8-87.601562c37.734375 3.769531 67.839844 33.867187 71.601562 71.601562h-71.601562zm0 0"/><path d="m256 240h16v16h-16zm0 0"/><path d="m288 224h16v16h-16zm0 0"/><path d="m320 256h16v16h-16zm0 0"/><path d="m352 192h16v16h-16zm0 0"/><path d="m384 208h16v16h-16zm0 0"/><path d="m416 160h16v16h-16zm0 0"/><path d="m304 64h128v16h-128zm0 0"/><path d="m304 96h128v16h-128zm0 0"/></svg>